<?xml version="1.0" standalone="no"?>
<!DOCTYPE svg PUBLIC "-//W3C//DTD SVG 20010904//EN"
 "http://www.w3.org/TR/2001/REC-SVG-20010904/DTD/svg10.dtd">
<svg version="1.0" xmlns="http://www.w3.org/2000/svg"
 width="111.000000pt" height="114.000000pt" viewBox="0 0 111.000000 114.000000"
 preserveAspectRatio="xMidYMid meet">

<g transform="translate(0.000000,114.000000) scale(0.100000,-0.100000)"
fill="#000000" stroke="none">
<path d="M567 1120 c-4 -15 -14 -20 -40 -20 -117 0 -257 -151 -257 -277 0 -41
31 -154 37 -135 6 15 33 16 33 1 0 -8 6 -7 17 2 15 13 16 11 11 -13 -3 -17 -1
-28 6 -28 8 0 8 -2 0 -8 -6 -4 -12 -33 -13 -65 -1 -32 -2 -62 -2 -65 -4 -29 7
-51 46 -91 79 -81 125 -138 125 -154 0 -28 -23 -31 -44 -6 -12 13 -25 25 -31
26 -5 1 -12 10 -16 20 -5 11 -8 -1 -8 -32 0 -29 6 -58 14 -69 8 -11 15 -26 15
-34 0 -13 -3 -12 -18 1 -26 24 -29 22 -35 -20 -3 -21 -8 -50 -12 -65 -6 -21
-1 -32 23 -57 l29 -31 299 0 299 0 18 40 c9 22 19 40 22 40 3 0 -2 -16 -10
-36 -19 -46 -19 -44 10 -44 23 0 25 4 25 45 0 43 -1 45 -30 45 -20 0 -30 5
-30 15 0 11 7 14 24 9 31 -7 45 14 21 32 -12 9 -32 12 -59 7 -37 -6 -40 -5
-27 10 7 10 10 17 5 18 -5 0 0 4 11 9 19 9 19 9 -2 16 -13 3 -23 10 -23 15 0
19 -27 8 -38 -16 -16 -36 -33 -32 -22 5 8 29 -3 53 -13 28 -3 -8 -9 -3 -15 12
-6 14 -11 21 -11 16 -1 -12 -32 29 -66 87 -15 27 -39 54 -51 59 -13 6 -24 18
-24 25 0 16 36 131 56 181 17 40 19 234 3 298 -7 25 -22 53 -35 63 -13 10 -24
25 -24 33 0 23 -29 43 -97 69 -44 17 -63 29 -63 42 0 24 -26 22 -33 -3z m-176
-254 c-7 -16 -5 -27 4 -37 17 -17 9 -30 -28 -47 -22 -9 -27 -17 -22 -32 5 -16
2 -20 -14 -20 -29 0 -27 32 6 103 18 37 33 57 45 57 14 0 16 -4 9 -24z m81
-210 c7 4 8 -5 3 -27 -4 -19 -12 -37 -18 -41 -17 -10 -22 -1 -8 16 7 8 9 27 6
43 -3 15 -2 22 1 15 3 -6 10 -9 16 -6z m28 -166 c0 -5 -4 -10 -9 -10 -6 0 -13
5 -16 10 -3 6 1 10 9 10 9 0 16 -4 16 -10z m-2 -469 c-13 -4 -38 26 -38 46 0
8 11 2 24 -14 14 -16 20 -30 14 -32z"/>
<path d="M312 645 c0 -16 2 -22 5 -12 2 9 2 23 0 30 -3 6 -5 -1 -5 -18z"/>
<path d="M95 100 c-3 -5 -1 -10 4 -10 6 0 11 5 11 10 0 6 -2 10 -4 10 -3 0 -8
-4 -11 -10z"/>
<path d="M150 74 c0 -8 5 -12 10 -9 6 3 10 10 10 16 0 5 -4 9 -10 9 -5 0 -10
-7 -10 -16z"/>
</g>
</svg>
